<?xml version="1.0" encoding="iso-8859-1"?>
<!-- Generator: Adobe Illustrator 19.0.0, SVG Export Plug-In . SVG Version: 6.00 Build 0)  -->
<svg version="1.1" id="Layer_1" xmlns="http://www.w3.org/2000/svg" xmlns:xlink="http://www.w3.org/1999/xlink" x="0px" y="0px"
	 viewBox="0 0 512 512" style="enable-background:new 0 0 512 512;" xml:space="preserve">
<g>
	<polygon style="fill:#3D7A94;" points="204.206,512 261.11,512 261.11,341.334 232.658,317.901 204.206,341.334 	"/>
	<polygon style="fill:#3D7A94;" points="261.11,0 204.206,0 204.206,170.667 232.658,194.101 261.11,170.667 	"/>
</g>
<g>
	<rect x="204.201" y="170.667" style="fill:#6BADB4;" width="56.904" height="170.667"/>
	<path style="fill:#6BADB4;" d="M308.362,255.148c-27.303,27.303-43.886,59.185-47.252,86.187
		c27.001-3.366,58.884-19.949,86.187-47.252c27.303-27.303,43.886-59.185,47.252-86.187
		C367.547,211.261,335.664,227.844,308.362,255.148z"/>
	<path style="fill:#6BADB4;" d="M342.96,355.577c-36.855,11.515-66.339,32.061-81.851,54.418
		c25.481,9.549,61.417,9.655,98.272-1.861c36.854-11.515,66.339-32.061,81.851-54.418
		C415.753,344.167,379.816,344.063,342.96,355.577z"/>
	<path style="fill:#6BADB4;" d="M156.954,84.481c27.303,27.303,43.886,59.185,47.252,86.187
		c-27.001-3.366-58.884-19.949-86.187-47.252S74.133,64.229,70.767,37.229C97.769,40.594,129.651,57.178,156.954,84.481z"/>
</g>
<g>
</g>
<g>
</g>
<g>
</g>
<g>
</g>
<g>
</g>
<g>
</g>
<g>
</g>
<g>
</g>
<g>
</g>
<g>
</g>
<g>
</g>
<g>
</g>
<g>
</g>
<g>
</g>
<g>
</g>
</svg>
