<?xml version="1.0" encoding="utf-8"?>
<!-- Generator: Adobe Illustrator 15.0.0, SVG Export Plug-In . SVG Version: 6.00 Build 0)  -->
<!DOCTYPE svg PUBLIC "-//W3C//DTD SVG 1.1//EN" "http://www.w3.org/Graphics/SVG/1.1/DTD/svg11.dtd">
<svg version="1.1" id="phone" xmlns="http://www.w3.org/2000/svg" xmlns:xlink="http://www.w3.org/1999/xlink" x="0px" y="0px"
	 width="68px" height="127.762px" viewBox="0 0 68 127.762" enable-background="new 0 0 68 127.762" xml:space="preserve">
<g>
	<path fill="#6C7988" d="M60.664,109.332H8.748V21.014c0-1.269,0.729-1.997,1.997-1.997h47.922c1.269,0,1.998,0.729,1.998,1.997
		L60.664,109.332L60.664,109.332z M9.669,108.41h50.072V21.014c0-0.764-0.312-1.075-1.075-1.075H10.745
		c-0.764,0-1.075,0.313-1.075,1.075L9.669,108.41L9.669,108.41z"/>
</g>
<g>
	<path fill="#6C7988" d="M34.783,121.824c-3.092,0-5.606-2.517-5.606-5.606s2.515-5.604,5.606-5.604
		c3.091,0,5.605,2.515,5.605,5.604C40.389,119.311,37.874,121.824,34.783,121.824z M34.783,111.533
		c-2.584,0-4.686,2.102-4.686,4.685s2.102,4.687,4.686,4.687c2.583,0,4.685-2.104,4.685-4.687S37.366,111.533,34.783,111.533z"/>
</g>
<g>
	<path fill="#6C7988" d="M35.691,118.548h-1.975c-0.726,0-1.317-0.592-1.317-1.317v-1.974c0-0.729,0.592-1.317,1.317-1.317h1.975
		c0.728,0,1.316,0.593,1.316,1.317v1.974C37.009,117.956,36.418,118.548,35.691,118.548z M33.718,114.861
		c-0.218,0-0.396,0.179-0.396,0.396v1.974c0,0.22,0.178,0.396,0.396,0.396h1.974c0.221,0,0.396-0.178,0.396-0.396v-1.974
		c0-0.218-0.177-0.396-0.396-0.396H33.718z"/>
</g>
<circle fill="#6C7988" cx="34.475" cy="9.571" r="1.152"/>
<circle fill="#6C7988" cx="27.013" cy="14.243" r="0.755"/>
<path fill="#6C7988" d="M38.764,13.488c-0.359,0-8.376,0-8.626,0c-0.445,0-0.807,0.323-0.807,0.769c0,0.446,0.361,0.768,0.807,0.768
	c0.144,0,8.419,0,8.626,0c0.444,0,0.807-0.321,0.807-0.768C39.57,13.811,39.208,13.488,38.764,13.488z"/>
<g>
	<path fill="#6C7988" d="M30.863,22.013h-0.195v-1.294l-0.392,0.144v-0.176l0.558-0.209h0.03L30.863,22.013L30.863,22.013z"/>
	<path fill="#6C7988" d="M32.391,21.36c0,0.229-0.039,0.396-0.117,0.508c-0.077,0.11-0.198,0.167-0.364,0.167
		c-0.163,0-0.283-0.055-0.361-0.163c-0.079-0.108-0.12-0.27-0.122-0.484v-0.259c0-0.225,0.039-0.393,0.116-0.5
		c0.078-0.109,0.199-0.164,0.365-0.164c0.165,0,0.286,0.053,0.363,0.158c0.078,0.104,0.118,0.268,0.12,0.487V21.36L32.391,21.36z
		 M32.197,21.095c0-0.165-0.023-0.285-0.069-0.36c-0.046-0.074-0.12-0.112-0.22-0.112c-0.1,0-0.172,0.038-0.217,0.111
		c-0.046,0.075-0.07,0.19-0.071,0.347v0.311c0,0.165,0.024,0.287,0.072,0.366c0.048,0.079,0.12,0.118,0.218,0.118
		c0.096,0,0.167-0.037,0.214-0.111c0.046-0.074,0.07-0.19,0.072-0.351L32.197,21.095L32.197,21.095z"/>
	<path fill="#6C7988" d="M32.653,21.911c0-0.034,0.011-0.063,0.03-0.084c0.02-0.022,0.05-0.033,0.09-0.033s0.07,0.011,0.091,0.033
		c0.021,0.021,0.031,0.05,0.031,0.084c0,0.031-0.01,0.059-0.031,0.081c-0.021,0.021-0.051,0.031-0.091,0.031s-0.07-0.011-0.09-0.031
		C32.664,21.97,32.653,21.943,32.653,21.911z M32.655,20.983c0-0.032,0.01-0.062,0.029-0.084c0.021-0.021,0.05-0.032,0.09-0.032
		c0.039,0,0.07,0.011,0.091,0.032c0.021,0.022,0.031,0.052,0.031,0.084s-0.011,0.06-0.031,0.081
		c-0.02,0.022-0.052,0.033-0.091,0.033c-0.04,0-0.069-0.011-0.09-0.033C32.665,21.042,32.655,21.016,32.655,20.983z"/>
	<path fill="#6C7988" d="M33.443,21.154h0.146c0.091-0.001,0.163-0.024,0.216-0.072c0.053-0.047,0.079-0.11,0.079-0.19
		c0-0.179-0.09-0.269-0.269-0.269c-0.083,0-0.151,0.022-0.201,0.071c-0.05,0.049-0.074,0.111-0.074,0.19h-0.194
		c0-0.122,0.044-0.222,0.133-0.302c0.089-0.08,0.2-0.121,0.338-0.121c0.144,0,0.257,0.038,0.339,0.115
		c0.082,0.076,0.122,0.182,0.122,0.317c0,0.066-0.021,0.131-0.064,0.193s-0.102,0.108-0.176,0.14
		c0.084,0.026,0.149,0.07,0.195,0.132c0.046,0.063,0.069,0.138,0.069,0.227c0,0.138-0.045,0.246-0.135,0.327
		c-0.09,0.08-0.207,0.121-0.351,0.121c-0.143,0-0.26-0.039-0.35-0.117c-0.09-0.077-0.135-0.181-0.135-0.308h0.195
		c0,0.081,0.026,0.146,0.079,0.193c0.053,0.048,0.122,0.073,0.211,0.073c0.094,0,0.165-0.025,0.215-0.074
		c0.05-0.048,0.075-0.119,0.075-0.21c0-0.089-0.027-0.157-0.083-0.205c-0.055-0.047-0.133-0.072-0.235-0.073h-0.146L33.443,21.154
		L33.443,21.154z"/>
	<path fill="#6C7988" d="M35.327,21.36c0,0.229-0.039,0.396-0.116,0.508c-0.078,0.11-0.199,0.167-0.365,0.167
		c-0.162,0-0.283-0.055-0.362-0.163c-0.078-0.108-0.118-0.27-0.121-0.484v-0.259c0-0.225,0.038-0.393,0.116-0.5
		c0.078-0.109,0.199-0.164,0.365-0.164c0.165,0,0.285,0.053,0.363,0.158c0.077,0.104,0.118,0.268,0.12,0.487V21.36L35.327,21.36z
		 M35.132,21.095c0-0.165-0.022-0.285-0.069-0.36c-0.045-0.074-0.119-0.112-0.22-0.112c-0.1,0-0.172,0.038-0.218,0.111
		c-0.046,0.075-0.068,0.19-0.07,0.347v0.311c0,0.165,0.023,0.287,0.071,0.366c0.049,0.079,0.121,0.118,0.218,0.118
		c0.098,0,0.168-0.037,0.215-0.111s0.069-0.19,0.072-0.351L35.132,21.095L35.132,21.095z"/>
	<path fill="#6C7988" d="M37.002,21.613h-0.641l-0.146,0.4H36.01l0.583-1.529h0.177l0.584,1.529h-0.205L37.002,21.613z
		 M36.422,21.448h0.521l-0.262-0.716L36.422,21.448z"/>
	<path fill="#6C7988" d="M37.822,20.484l0.498,1.247l0.5-1.247h0.263v1.529H38.88v-0.595l0.021-0.644l-0.502,1.238h-0.152
		l-0.501-1.235l0.021,0.641v0.595h-0.201v-1.529H37.822z"/>
</g>
<path fill="#6C7988" d="M64.35,28.249V11.706c0-4.946-4.021-8.971-8.97-8.971H14.338c-4.945,0-8.97,4.024-8.97,8.971v7.634
	c-0.52,0.075-0.922,0.52-0.922,1.06v4.915c0,0.54,0.402,0.984,0.922,1.061v1.566c-0.52,0.076-0.922,0.521-0.922,1.061v7.064
	c0,0.54,0.402,0.984,0.922,1.061v1.566c-0.52,0.075-0.922,0.521-0.922,1.061v7.064c0,0.54,0.402,0.984,0.922,1.061v68.458
	c0,4.946,4.024,8.97,8.97,8.97h41.041c4.947,0,8.971-4.021,8.971-8.97V37.434c0.521-0.075,0.922-0.52,0.922-1.06v-7.065
	C65.271,28.769,64.869,28.324,64.35,28.249z M63.121,116.336c0,4.27-3.473,7.741-7.742,7.741H14.338
	c-4.268,0-7.741-3.475-7.741-7.741V46.818v-7.064v-3.688v-7.064v-3.687V20.4v-8.693c0-4.27,3.474-7.741,7.741-7.741h41.041
	c4.27,0,7.742,3.473,7.742,7.741v17.603v7.065V116.336z"/>
<g>
	<rect x="10.898" y="21.731" fill="#6C7988" width="0.614" height="0.358"/>
	<rect x="11.82" y="21.475" fill="#6C7988" width="0.614" height="0.614"/>
	<rect x="14.584" y="20.553" fill="#6C7988" width="0.614" height="1.536"/>
	<rect x="12.742" y="21.168" fill="#6C7988" width="0.614" height="0.921"/>
	<rect x="13.663" y="20.861" fill="#6C7988" width="0.614" height="1.229"/>
</g>
<polygon fill="#6C7988" points="54.52,20.553 54.52,22.089 57.898,22.089 57.898,21.782 58.514,21.782 58.514,20.861 57.898,20.861 
	57.898,20.553 "/>
<path opacity="0.2" fill="#6C7988" enable-background="new    " d="M55.379,125.307H14.338c-4.945,0-8.97-4.022-8.97-8.971V11.706
	c0-1.705,0.479-3.3,1.307-4.658c-2.956,1.469-4.071,2.983-4.071,6.501v104.629c0,4.946,4.024,9.584,8.97,9.584h41.041
	c3.242,0,5.164-0.806,6.74-3.39C58.157,124.969,56.807,125.307,55.379,125.307z"/>
<g opacity="0.1">
	<path d="M20.982,61.429c-0.183-0.102-0.706-0.039-1.335,0.156c-1.101,0.752-2.029,1.86-2.094,3.64
		c-0.012,0.043-0.12-0.005-0.142-0.018c-0.297-0.57-0.415-1.171-0.167-2.036c0.046-0.077-0.105-0.172-0.132-0.145
		c-0.055,0.054-0.282,0.296-0.433,0.558c-0.747,1.297-0.258,2.959,1.049,3.686c1.308,0.729,2.958,0.259,3.687-1.051
		C22.258,64.712,21.476,61.705,20.982,61.429z"/>
	<g>
		<path d="M25.664,62.154c-1.551,0-2.676,1.153-2.676,2.74c0,1.602,1.123,2.72,2.73,2.72c0.812,0,1.455-0.254,1.966-0.776
			c0.153-0.165,0.169-0.324,0.169-0.385c0-0.259-0.193-0.447-0.458-0.447c-0.134,0-0.246,0.051-0.374,0.169
			c-0.29,0.27-0.67,0.546-1.303,0.546c-0.88,0-1.595-0.661-1.64-1.509h3.501c0.381,0,0.565-0.179,0.565-0.544
			c0-0.108,0-0.186-0.021-0.34C27.933,62.967,27.014,62.154,25.664,62.154L25.664,62.154z M25.664,63.003
			c0.84,0,1.38,0.537,1.413,1.401h-2.999C24.156,63.604,24.833,63.003,25.664,63.003z M31.487,62.154
			c-0.704,0-1.401,0.405-1.674,0.968v-0.349c0-0.537-0.417-0.565-0.501-0.565c-0.247,0-0.511,0.149-0.511,0.565v4.198
			c0,0.56,0.444,0.589,0.533,0.589c0.089,0,0.534-0.028,0.534-0.589v-2.25c0-0.979,0.555-1.663,1.35-1.663
			c0.769,0,1.143,0.504,1.143,1.543v2.37c0,0.56,0.444,0.589,0.533,0.589c0.09,0,0.534-0.028,0.534-0.589v-2.704
			C33.428,63.244,32.918,62.154,31.487,62.154L31.487,62.154z M38.254,62.207c-0.247,0-0.425,0.144-0.532,0.427l-1.459,3.67
			l-1.449-3.67c-0.111-0.287-0.29-0.427-0.541-0.427c-0.295,0-0.533,0.23-0.533,0.511c0,0.071,0.008,0.161,0.066,0.304l1.676,3.959
			c0.201,0.478,0.529,0.578,0.771,0.578s0.57-0.101,0.77-0.578l1.688-3.981c0.059-0.14,0.067-0.242,0.067-0.291
			C38.776,62.423,38.552,62.207,38.254,62.207z M41.356,62.154c-0.684,0-1.318,0.19-1.79,0.535
			c-0.159,0.109-0.237,0.248-0.237,0.421c0,0.238,0.182,0.425,0.414,0.425c0.102,0,0.213-0.04,0.316-0.112
			c0.405-0.271,0.786-0.396,1.199-0.396c0.788,0,1.241,0.4,1.241,1.101v0.116c-1.771,0.002-3.572,0.215-3.572,1.755
			c0,1.109,0.948,1.605,1.888,1.605c0.747,0,1.345-0.296,1.728-0.856v0.269c0,0.402,0.27,0.545,0.501,0.545
			c0.049,0,0.479-0.016,0.479-0.545v-2.824C43.523,62.915,42.713,62.154,41.356,62.154z M42.275,65.028H42.5v0.246
			c0,0.898-0.573,1.479-1.458,1.479c-0.241,0-1.025-0.057-1.025-0.777C40.017,65.125,41.306,65.028,42.275,65.028L42.275,65.028z
			 M46.301,63.176c0.467,0,0.489-0.363,0.489-0.436c0-0.216-0.128-0.446-0.489-0.446h-0.96v-0.972c0-0.434-0.281-0.587-0.522-0.587
			c-0.09,0-0.533,0.028-0.533,0.587v4.61c0,1.063,0.524,1.626,1.517,1.626c0.257,0,0.508-0.045,0.672-0.122
			c0.188-0.094,0.295-0.247,0.295-0.423c0-0.246-0.179-0.425-0.425-0.425c-0.048,0-0.115,0.012-0.19,0.033
			c-0.092,0.023-0.152,0.032-0.221,0.032c-0.404,0-0.592-0.265-0.592-0.83v-2.648H46.301L46.301,63.176z M49.828,62.154
			c-1.614,0-2.784,1.145-2.784,2.719c0,0.768,0.283,1.467,0.799,1.969c0.511,0.498,1.215,0.771,1.984,0.771
			c1.593,0,2.795-1.178,2.795-2.74C52.622,63.297,51.447,62.154,49.828,62.154L49.828,62.154z M49.828,66.709
			c-1.106,0-1.685-0.925-1.685-1.837c0-1.254,0.873-1.825,1.685-1.825s1.686,0.571,1.686,1.825
			C51.513,66.135,50.64,66.709,49.828,66.709z"/>
	</g>
</g>
</svg>
