<?xml version="1.0" encoding="utf-8"?>
<!-- Generator: Adobe Illustrator 15.0.0, SVG Export Plug-In . SVG Version: 6.00 Build 0)  -->
<!DOCTYPE svg PUBLIC "-//W3C//DTD SVG 1.1//EN" "http://www.w3.org/Graphics/SVG/1.1/DTD/svg11.dtd">
<svg version="1.1" id="macbook" xmlns="http://www.w3.org/2000/svg" xmlns:xlink="http://www.w3.org/1999/xlink" x="0px" y="0px"
	 width="260px" height="195.682px" viewBox="0 0 260 195.682" enable-background="new 0 0 260 195.682" xml:space="preserve">
<g>
	<path fill="#6C7988" d="M158.257,179.535h-55.689c-0.756,0-1.371-0.615-1.371-1.371v-39.543c0-0.756,0.615-1.371,1.371-1.371
		h55.689c0.757,0,1.369,0.615,1.369,1.371v39.543C159.626,178.92,159.014,179.535,158.257,179.535z M102.733,177.998h55.355v-39.21
		h-55.355V177.998z"/>
</g>
<g>
	<path fill="#6C7988" d="M51.992,124.949H35.846V69.595h16.146V124.949z M37.385,123.412h13.07V71.133h-13.07V123.412
		L37.385,123.412z"/>
</g>
<g>
	<path fill="#6C7988" d="M224.207,124.949h-16.146V69.595h16.146V124.949z M209.602,123.412h13.067V71.133h-13.067V123.412z"/>
</g>
<path fill="#6C7988" d="M256.449,5.402c-0.943-1.785-3.122-2.692-6.488-2.692c-3.246,0.001-30.77,0.001-66.018,0.001H12.07
	c0,0-0.135-0.005-0.367-0.005c-1.914,0-6.532,0.302-8.105,3.097C2.733,7.34,2.944,9.192,4.23,11.309L28.303,50.77
	c0.282,0.499,1.415,2.048,4.758,2.892c-2.947,1.922-4.902,5.241-4.902,9.016v117.629c0,5.938,4.826,10.764,10.764,10.764h180.671
	c5.938,0,10.766-4.825,10.766-10.764V62.676c0-3.672-1.854-6.917-4.666-8.86c2.178-0.717,5.611-2.685,9.188-8.049
	c5.288-7.932,19.824-32.864,20.743-34.44C255.973,10.8,257.764,7.891,256.449,5.402z M110.755,187.992
	c0.596-1.354,1.94-2.309,3.512-2.309h30.752c1.569,0,2.918,0.953,3.514,2.309H110.755z M227.282,62.676v117.629
	c0,4.237-3.449,7.688-7.688,7.688h-69.419c-0.664-2.223-2.724-3.846-5.155-3.846h-30.75c-2.434,0-4.49,1.623-5.154,3.846h-70.19
	c-4.24,0-7.688-3.449-7.688-7.688V62.676c0-4.239,3.447-7.688,7.688-7.688h13.109c-0.025,0.124-0.039,0.254-0.039,0.386v1.538
	c0,1.06,0.861,1.922,1.922,1.922h149.919c1.063,0,1.923-0.862,1.923-1.922v-1.538c0-0.132-0.014-0.262-0.038-0.386H219.6
	C223.832,54.988,227.282,58.436,227.282,62.676z M204.986,55.372v1.538c0,0.636-0.52,1.151-1.152,1.151H53.914
	c-0.636,0-1.153-0.518-1.153-1.151v-1.538c0-0.138,0.028-0.266,0.071-0.386h152.083C204.959,55.108,204.986,55.236,204.986,55.372z
	 M224.104,45.762H35.979L16.583,11.165h228.11L224.104,45.762z"/>
<path fill="#6C7988" d="M64.293,73.51c0,0.385-0.313,0.698-0.698,0.698h-7.061c-0.386,0-0.697-0.313-0.697-0.698v-3.217
	c0-0.385,0.313-0.697,0.697-0.697h7.061c0.387,0,0.698,0.313,0.698,0.698V73.51z"/>
<path fill="#6C7988" d="M64.293,83.504c0,0.385-0.313,0.698-0.698,0.698h-7.061c-0.386,0-0.697-0.313-0.697-0.698v-7.063
	c0-0.385,0.313-0.696,0.697-0.696h7.061c0.387,0,0.698,0.312,0.698,0.696V83.504z"/>
<path fill="#6C7988" d="M74.287,83.504c0,0.385-0.313,0.698-0.696,0.698h-7.062c-0.386,0-0.699-0.313-0.699-0.698v-7.063
	c0-0.385,0.313-0.696,0.699-0.696h7.062c0.385,0,0.696,0.312,0.696,0.696V83.504z"/>
<path fill="#6C7988" d="M84.283,83.504c0,0.385-0.313,0.698-0.698,0.698h-7.061c-0.385,0-0.698-0.313-0.698-0.698v-7.063
	c0-0.385,0.313-0.696,0.698-0.696h7.061c0.385,0,0.698,0.312,0.698,0.696V83.504z"/>
<path fill="#6C7988" d="M94.278,83.504c0,0.385-0.313,0.698-0.699,0.698h-7.061c-0.385,0-0.697-0.313-0.697-0.698v-7.063
	c0-0.385,0.313-0.696,0.697-0.696h7.061c0.387,0,0.699,0.312,0.699,0.696V83.504z"/>
<path fill="#6C7988" d="M104.272,83.504c0,0.385-0.313,0.698-0.698,0.698h-7.062c-0.388,0-0.697-0.313-0.697-0.698v-7.063
	c0-0.385,0.311-0.696,0.697-0.696h7.062c0.386,0,0.698,0.312,0.698,0.696V83.504z"/>
<path fill="#6C7988" d="M114.267,83.504c0,0.385-0.313,0.698-0.697,0.698h-7.061c-0.39,0-0.699-0.313-0.699-0.698v-7.063
	c0-0.385,0.311-0.696,0.699-0.696h7.061c0.385,0,0.697,0.312,0.697,0.696V83.504z"/>
<path fill="#6C7988" d="M124.261,83.504c0,0.385-0.313,0.698-0.697,0.698h-7.061c-0.389,0-0.699-0.313-0.699-0.698v-7.063
	c0-0.385,0.312-0.696,0.699-0.696h7.061c0.385,0,0.697,0.312,0.697,0.696V83.504z"/>
<path fill="#6C7988" d="M134.257,83.504c0,0.385-0.313,0.698-0.698,0.698h-7.063c-0.387,0-0.696-0.313-0.696-0.698v-7.063
	c0-0.385,0.311-0.696,0.696-0.696h7.063c0.385,0,0.698,0.312,0.698,0.696V83.504z"/>
<path fill="#6C7988" d="M144.25,83.504c0,0.385-0.313,0.698-0.698,0.698h-7.061c-0.39,0-0.698-0.313-0.698-0.698v-7.063
	c0-0.385,0.313-0.696,0.698-0.696h7.061c0.386,0,0.698,0.312,0.698,0.696V83.504z"/>
<path fill="#6C7988" d="M154.244,83.504c0,0.385-0.313,0.698-0.696,0.698h-7.062c-0.391,0-0.699-0.313-0.699-0.698v-7.063
	c0-0.385,0.313-0.696,0.699-0.696h7.062c0.386,0,0.696,0.312,0.696,0.696V83.504z"/>
<path fill="#6C7988" d="M164.238,83.504c0,0.385-0.313,0.698-0.696,0.698h-7.062c-0.391,0-0.697-0.313-0.697-0.698v-7.063
	c0-0.385,0.313-0.696,0.697-0.696h7.062c0.385,0,0.696,0.312,0.696,0.696V83.504z"/>
<path fill="#6C7988" d="M174.234,83.504c0,0.385-0.313,0.698-0.698,0.698h-7.062c-0.389,0-0.697-0.313-0.697-0.698v-7.063
	c0-0.385,0.312-0.696,0.697-0.696h7.062c0.385,0,0.698,0.312,0.698,0.696V83.504z"/>
<path fill="#6C7988" d="M184.229,83.504c0,0.385-0.313,0.698-0.699,0.698h-7.061c-0.388,0-0.697-0.313-0.697-0.698v-7.063
	c0-0.385,0.313-0.696,0.697-0.696h7.061c0.389,0,0.699,0.312,0.699,0.696V83.504z"/>
<path fill="#6C7988" d="M114.267,93.498c0,0.386-0.313,0.696-0.697,0.696h-7.061c-0.39,0-0.699-0.313-0.699-0.696v-7.063
	c0-0.385,0.311-0.696,0.699-0.696h7.061c0.385,0,0.697,0.312,0.697,0.696V93.498z"/>
<path fill="#6C7988" d="M104.272,93.498c0,0.386-0.313,0.696-0.698,0.696h-7.062c-0.388,0-0.697-0.313-0.697-0.696v-7.063
	c0-0.385,0.311-0.696,0.697-0.696h7.062c0.386,0,0.698,0.312,0.698,0.696V93.498z"/>
<path fill="#6C7988" d="M94.278,93.498c0,0.386-0.313,0.696-0.699,0.696h-7.061c-0.385,0-0.697-0.313-0.697-0.696v-7.063
	c0-0.385,0.313-0.696,0.697-0.696h7.061c0.387,0,0.699,0.312,0.699,0.696V93.498z"/>
<path fill="#6C7988" d="M84.283,93.498c0,0.386-0.313,0.696-0.698,0.696h-7.061c-0.385,0-0.698-0.313-0.698-0.696v-7.063
	c0-0.385,0.313-0.696,0.698-0.696h7.061c0.385,0,0.698,0.312,0.698,0.696V93.498z"/>
<path fill="#6C7988" d="M74.287,93.498c0,0.386-0.313,0.696-0.696,0.696H56.534c-0.386,0-0.697-0.313-0.697-0.696v-7.063
	c0-0.385,0.313-0.696,0.697-0.696h17.057c0.385,0,0.696,0.312,0.696,0.696V93.498z"/>
<path fill="#6C7988" d="M75.825,103.493c0,0.386-0.313,0.696-0.697,0.696H56.534c-0.386,0-0.697-0.313-0.697-0.696v-7.063
	c0-0.386,0.313-0.698,0.697-0.698h18.594c0.385,0,0.697,0.313,0.697,0.698V103.493z"/>
<path fill="#6C7988" d="M77.364,113.488c0,0.388-0.313,0.697-0.699,0.697h-20.13c-0.386,0-0.698-0.313-0.698-0.697v-7.062
	c0-0.387,0.313-0.698,0.698-0.698h20.13c0.387,0,0.699,0.313,0.699,0.698V113.488z"/>
<path fill="#6C7988" d="M85.821,103.493c0,0.386-0.313,0.696-0.699,0.696h-7.061c-0.385,0-0.697-0.313-0.697-0.696v-7.063
	c0-0.386,0.313-0.698,0.697-0.698h7.061c0.387,0,0.699,0.313,0.699,0.698V103.493z"/>
<path fill="#6C7988" d="M124.261,93.498c0,0.386-0.313,0.696-0.697,0.696h-7.061c-0.389,0-0.699-0.313-0.699-0.696v-7.063
	c0-0.385,0.312-0.696,0.699-0.696h7.061c0.385,0,0.697,0.312,0.697,0.696V93.498z"/>
<path fill="#6C7988" d="M134.257,93.498c0,0.386-0.313,0.696-0.698,0.696h-7.063c-0.387,0-0.696-0.313-0.696-0.696v-7.063
	c0-0.385,0.311-0.696,0.696-0.696h7.063c0.385,0,0.698,0.312,0.698,0.696V93.498z"/>
<path fill="#6C7988" d="M144.25,93.498c0,0.386-0.313,0.696-0.698,0.696h-7.061c-0.39,0-0.698-0.313-0.698-0.696v-7.063
	c0-0.385,0.313-0.696,0.698-0.696h7.061c0.386,0,0.698,0.312,0.698,0.696V93.498z"/>
<path fill="#6C7988" d="M154.244,93.498c0,0.386-0.313,0.696-0.696,0.696h-7.062c-0.391,0-0.699-0.313-0.699-0.696v-7.063
	c0-0.385,0.313-0.696,0.699-0.696h7.062c0.386,0,0.696,0.312,0.696,0.696V93.498z"/>
<path fill="#6C7988" d="M164.238,93.498c0,0.386-0.313,0.696-0.696,0.696h-7.062c-0.391,0-0.697-0.313-0.697-0.696v-7.063
	c0-0.385,0.313-0.696,0.697-0.696h7.062c0.385,0,0.696,0.312,0.696,0.696V93.498z"/>
<path fill="#6C7988" d="M174.234,93.498c0,0.386-0.313,0.696-0.698,0.696h-7.062c-0.389,0-0.697-0.313-0.697-0.696v-7.063
	c0-0.385,0.312-0.696,0.697-0.696h7.062c0.385,0,0.698,0.312,0.698,0.696V93.498z"/>
<path fill="#6C7988" d="M184.229,93.498c0,0.386-0.313,0.696-0.699,0.696h-7.061c-0.388,0-0.697-0.313-0.697-0.696v-7.063
	c0-0.385,0.313-0.696,0.697-0.696h7.061c0.389,0,0.699,0.312,0.699,0.696V93.498z"/>
<path fill="#6C7988" d="M194.225,93.498c0,0.386-0.313,0.696-0.699,0.696h-7.062c-0.385,0-0.696-0.313-0.696-0.696v-7.063
	c0-0.385,0.313-0.696,0.696-0.696h7.062c0.389,0,0.699,0.312,0.699,0.696V93.498z"/>
<path fill="#6C7988" d="M204.218,93.498c0,0.386-0.313,0.696-0.696,0.696h-7.063c-0.385,0-0.697-0.313-0.697-0.696v-7.063
	c0-0.385,0.313-0.696,0.697-0.696h7.063c0.387,0,0.696,0.312,0.696,0.696V93.498z"/>
<path fill="#6C7988" d="M95.815,103.493c0,0.386-0.313,0.696-0.698,0.696h-7.062c-0.385,0-0.697-0.313-0.697-0.696v-7.063
	c0-0.386,0.313-0.698,0.697-0.698h7.062c0.386,0,0.698,0.313,0.698,0.698V103.493z"/>
<path fill="#6C7988" d="M105.81,103.493c0,0.386-0.313,0.696-0.697,0.696h-7.061c-0.389,0-0.699-0.313-0.699-0.696v-7.063
	c0-0.386,0.312-0.698,0.699-0.698h7.061c0.385,0,0.697,0.313,0.697,0.698V103.493z"/>
<path fill="#6C7988" d="M115.804,103.493c0,0.386-0.313,0.696-0.697,0.696h-7.061c-0.388,0-0.699-0.313-0.699-0.696v-7.063
	c0-0.386,0.313-0.698,0.699-0.698h7.061c0.385,0,0.697,0.313,0.697,0.698V103.493z"/>
<path fill="#6C7988" d="M125.8,103.493c0,0.386-0.313,0.696-0.699,0.696h-7.062c-0.387,0-0.696-0.313-0.696-0.696v-7.063
	c0-0.386,0.311-0.698,0.696-0.698h7.062c0.386,0,0.699,0.313,0.699,0.698V103.493z"/>
<path fill="#6C7988" d="M135.793,103.493c0,0.386-0.313,0.696-0.697,0.696h-7.062c-0.389,0-0.697-0.313-0.697-0.696v-7.063
	c0-0.386,0.311-0.698,0.697-0.698h7.062c0.387,0,0.697,0.313,0.697,0.698V103.493z"/>
<path fill="#6C7988" d="M145.787,103.493c0,0.386-0.313,0.696-0.696,0.696h-7.062c-0.391,0-0.699-0.313-0.699-0.696v-7.063
	c0-0.386,0.313-0.698,0.699-0.698h7.062c0.386,0,0.696,0.313,0.696,0.698V103.493z"/>
<path fill="#6C7988" d="M155.783,103.493c0,0.386-0.313,0.696-0.698,0.696h-7.062c-0.391,0-0.697-0.313-0.697-0.696v-7.063
	c0-0.386,0.313-0.698,0.697-0.698h7.062c0.386,0,0.698,0.313,0.698,0.698V103.493z"/>
<path fill="#6C7988" d="M165.777,103.493c0,0.386-0.313,0.696-0.698,0.696h-7.062c-0.389,0-0.697-0.313-0.697-0.696v-7.063
	c0-0.386,0.312-0.698,0.697-0.698h7.062c0.385,0,0.698,0.313,0.698,0.698V103.493z"/>
<path fill="#6C7988" d="M175.771,103.493c0,0.386-0.313,0.696-0.698,0.696h-7.063c-0.388,0-0.695-0.313-0.695-0.696v-7.063
	c0-0.386,0.312-0.698,0.695-0.698h7.063c0.386,0,0.698,0.313,0.698,0.698V103.493z"/>
<path fill="#6C7988" d="M185.768,103.493c0,0.386-0.313,0.696-0.699,0.696h-7.06c-0.39,0-0.698-0.313-0.698-0.696v-7.063
	c0-0.386,0.313-0.698,0.698-0.698h7.06c0.389,0,0.699,0.313,0.699,0.698V103.493z"/>
<path fill="#6C7988" d="M204.218,103.493c0,0.386-0.313,0.696-0.696,0.696h-15.519c-0.386,0-0.698-0.313-0.698-0.696v-7.063
	c0-0.386,0.313-0.698,0.698-0.698h15.519c0.387,0,0.696,0.313,0.696,0.698V103.493z"/>
<path fill="#6C7988" d="M204.218,113.488c0,0.388-0.313,0.697-0.696,0.697h-23.976c-0.386,0-0.698-0.313-0.698-0.697v-7.062
	c0-0.387,0.313-0.698,0.698-0.698h23.976c0.387,0,0.696,0.313,0.696,0.698V113.488z"/>
<path fill="#6C7988" d="M87.358,113.488c0,0.388-0.313,0.697-0.698,0.697h-7.062c-0.385,0-0.697-0.313-0.697-0.697v-7.062
	c0-0.387,0.313-0.698,0.697-0.698h7.062c0.386,0,0.698,0.313,0.698,0.698V113.488z"/>
<path fill="#6C7988" d="M97.353,113.488c0,0.388-0.313,0.697-0.697,0.697h-7.061c-0.387,0-0.699-0.313-0.699-0.697v-7.062
	c0-0.387,0.313-0.698,0.699-0.698h7.061c0.385,0,0.697,0.313,0.697,0.698V113.488z"/>
<path fill="#6C7988" d="M107.347,113.488c0,0.388-0.313,0.697-0.697,0.697h-7.061c-0.388,0-0.699-0.313-0.699-0.697v-7.062
	c0-0.387,0.313-0.698,0.699-0.698h7.061c0.385,0,0.697,0.313,0.697,0.698V113.488z"/>
<path fill="#6C7988" d="M64.293,124.251c0,0.386-0.313,0.698-0.698,0.698h-7.061c-0.386,0-0.697-0.313-0.697-0.698v-7.063
	c0-0.385,0.313-0.695,0.697-0.695h7.061c0.387,0,0.698,0.311,0.698,0.695V124.251z"/>
<path fill="#6C7988" d="M74.287,124.251c0,0.386-0.313,0.698-0.696,0.698h-7.062c-0.386,0-0.699-0.313-0.699-0.698v-7.063
	c0-0.385,0.313-0.695,0.699-0.695h7.062c0.385,0,0.696,0.311,0.696,0.695V124.251z"/>
<path fill="#6C7988" d="M84.283,124.251c0,0.386-0.313,0.698-0.698,0.698h-7.061c-0.385,0-0.698-0.313-0.698-0.698v-7.063
	c0-0.385,0.313-0.695,0.698-0.695h7.061c0.385,0,0.698,0.311,0.698,0.695V124.251z"/>
<path fill="#6C7988" d="M97.353,124.251c0,0.386-0.313,0.698-0.697,0.698h-9.367c-0.385,0-0.697-0.313-0.697-0.698v-7.063
	c0-0.385,0.313-0.695,0.697-0.695h9.367c0.385,0,0.697,0.311,0.697,0.695V124.251z"/>
<path fill="#6C7988" d="M173.466,117.189c0-0.383-0.313-0.695-0.698-0.695h-7.062c-0.388,0-0.697,0.313-0.697,0.695v7.063
	c0,0.385,0.312,0.698,0.697,0.698h7.062c0.387,0,0.698-0.313,0.698-0.698V117.189z"/>
<path fill="#6C7988" d="M183.459,121.035c0-0.387-0.313-0.698-0.695-0.698h-7.063c-0.389,0-0.699,0.312-0.699,0.698v3.218
	c0,0.384,0.313,0.698,0.699,0.698h7.063c0.385,0,0.695-0.313,0.695-0.698V121.035z"/>
<path fill="#6C7988" d="M204.218,121.035c0-0.387-0.313-0.698-0.696-0.698h-7.063c-0.385,0-0.697,0.312-0.697,0.698v3.218
	c0,0.384,0.313,0.698,0.697,0.698h7.063c0.387,0,0.696-0.313,0.696-0.698V121.035z"/>
<path fill="#6C7988" d="M194.225,116.422c0-0.384-0.313-0.697-0.699-0.697h-7.062c-0.385,0-0.696,0.313-0.696,0.697v7.831
	c0,0.384,0.313,0.698,0.696,0.698h7.062c0.389,0,0.699-0.313,0.699-0.698V116.422z"/>
<path fill="#6C7988" d="M162.701,117.189c0-0.383-0.313-0.695-0.698-0.695h-9.364c-0.39,0-0.699,0.313-0.699,0.695v7.063
	c0,0.385,0.313,0.698,0.699,0.698h9.364c0.388,0,0.698-0.313,0.698-0.698V117.189z"/>
<path fill="#6C7988" d="M149.632,117.189c0-0.383-0.313-0.695-0.696-0.695h-48.577c-0.389,0-0.699,0.313-0.699,0.695v7.063
	c0,0.385,0.311,0.698,0.699,0.698h48.577c0.385,0,0.696-0.313,0.696-0.698V117.189L149.632,117.189z"/>
<path fill="#6C7988" d="M117.343,113.488c0,0.388-0.313,0.697-0.699,0.697h-7.062c-0.387,0-0.696-0.313-0.696-0.697v-7.062
	c0-0.387,0.311-0.698,0.696-0.698h7.062c0.386,0,0.699,0.313,0.699,0.698V113.488z"/>
<path fill="#6C7988" d="M127.337,113.488c0,0.388-0.313,0.697-0.699,0.697h-7.061c-0.388,0-0.697-0.313-0.697-0.697v-7.062
	c0-0.387,0.311-0.698,0.697-0.698h7.061c0.387,0,0.699,0.313,0.699,0.698V113.488z"/>
<path fill="#6C7988" d="M137.33,113.488c0,0.388-0.313,0.697-0.696,0.697h-7.062c-0.388,0-0.699-0.313-0.699-0.697v-7.062
	c0-0.387,0.312-0.698,0.699-0.698h7.062c0.386,0,0.696,0.313,0.696,0.698V113.488z"/>
<path fill="#6C7988" d="M147.325,113.488c0,0.388-0.313,0.697-0.697,0.697h-7.062c-0.391,0-0.698-0.313-0.698-0.697v-7.062
	c0-0.387,0.312-0.698,0.698-0.698h7.062c0.386,0,0.697,0.313,0.697,0.698V113.488z"/>
<path fill="#6C7988" d="M157.32,113.488c0,0.388-0.313,0.697-0.698,0.697h-7.062c-0.389,0-0.697-0.313-0.697-0.697v-7.062
	c0-0.387,0.312-0.698,0.697-0.698h7.062c0.385,0,0.698,0.313,0.698,0.698V113.488z"/>
<path fill="#6C7988" d="M167.314,113.488c0,0.388-0.313,0.697-0.697,0.697h-7.063c-0.39,0-0.697-0.313-0.697-0.697v-7.062
	c0-0.387,0.312-0.698,0.697-0.698h7.063c0.386,0,0.697,0.313,0.697,0.698V113.488z"/>
<path fill="#6C7988" d="M177.311,113.488c0,0.388-0.313,0.697-0.695,0.697h-7.063c-0.39,0-0.698-0.313-0.698-0.697v-7.062
	c0-0.387,0.313-0.698,0.698-0.698h7.063c0.385,0,0.695,0.313,0.695,0.698V113.488z"/>
<path fill="#6C7988" d="M204.218,83.504c0,0.385-0.313,0.698-0.696,0.698h-17.058c-0.385,0-0.696-0.313-0.696-0.698v-7.063
	c0-0.385,0.313-0.696,0.696-0.696h17.058c0.387,0,0.696,0.312,0.696,0.696V83.504z"/>
<path fill="#6C7988" d="M75.058,73.51c0,0.385-0.313,0.698-0.698,0.698h-7.062c-0.386,0-0.697-0.313-0.697-0.698v-3.217
	c0-0.385,0.313-0.697,0.697-0.697h7.062c0.385,0,0.698,0.313,0.698,0.698V73.51z"/>
<path fill="#6C7988" d="M85.821,73.51c0,0.385-0.313,0.698-0.699,0.698h-7.061c-0.385,0-0.697-0.313-0.697-0.698v-3.217
	c0-0.385,0.313-0.698,0.697-0.698h7.061c0.387,0,0.699,0.313,0.699,0.698V73.51z"/>
<path fill="#6C7988" d="M96.584,73.51c0,0.385-0.313,0.698-0.698,0.698h-7.062c-0.385,0-0.697-0.313-0.697-0.698v-3.217
	c0-0.385,0.313-0.698,0.697-0.698h7.062c0.385,0,0.698,0.313,0.698,0.698V73.51z"/>
<path fill="#6C7988" d="M107.347,73.51c0,0.385-0.313,0.698-0.697,0.698h-7.061c-0.388,0-0.699-0.313-0.699-0.698v-3.217
	c0-0.385,0.313-0.698,0.699-0.698h7.061c0.385,0,0.697,0.313,0.697,0.698V73.51z"/>
<path fill="#6C7988" d="M118.11,73.51c0,0.385-0.313,0.698-0.697,0.698h-7.061c-0.389,0-0.698-0.313-0.698-0.698v-3.217
	c0-0.385,0.312-0.698,0.698-0.698h7.061c0.385,0,0.697,0.313,0.697,0.698V73.51z"/>
<path fill="#6C7988" d="M128.873,73.51c0,0.385-0.313,0.698-0.696,0.698h-7.062c-0.388,0-0.699-0.313-0.699-0.698v-3.217
	c0-0.385,0.312-0.698,0.699-0.698h7.062c0.385,0,0.696,0.313,0.696,0.698V73.51z"/>
<path fill="#6C7988" d="M139.639,73.51c0,0.385-0.313,0.698-0.699,0.698h-7.06c-0.39,0-0.698-0.313-0.698-0.698v-3.217
	c0-0.385,0.313-0.698,0.698-0.698h7.06c0.389,0,0.699,0.313,0.699,0.698V73.51z"/>
<path fill="#6C7988" d="M150.4,73.51c0,0.385-0.313,0.698-0.697,0.698h-7.063c-0.389,0-0.697-0.313-0.697-0.698v-3.217
	c0-0.385,0.312-0.698,0.697-0.698h7.063c0.386,0,0.697,0.313,0.697,0.698V73.51z"/>
<path fill="#6C7988" d="M161.164,73.51c0,0.385-0.313,0.698-0.698,0.698h-7.062c-0.389,0-0.697-0.313-0.697-0.698v-3.217
	c0-0.385,0.313-0.698,0.697-0.698h7.062c0.386,0,0.698,0.313,0.698,0.698V73.51z"/>
<path fill="#6C7988" d="M171.93,73.51c0,0.385-0.313,0.698-0.699,0.698h-7.063c-0.387,0-0.695-0.313-0.695-0.698v-3.217
	c0-0.385,0.313-0.698,0.695-0.698h7.063c0.388,0,0.699,0.313,0.699,0.698V73.51z"/>
<path fill="#6C7988" d="M182.691,73.51c0,0.385-0.313,0.698-0.698,0.698h-7.062c-0.389,0-0.697-0.313-0.697-0.698v-3.217
	c0-0.385,0.312-0.698,0.697-0.698h7.062c0.385,0,0.698,0.313,0.698,0.698V73.51z"/>
<path fill="#6C7988" d="M193.454,73.51c0,0.385-0.313,0.698-0.697,0.698h-7.062c-0.387,0-0.698-0.313-0.698-0.698v-3.217
	c0-0.385,0.313-0.698,0.698-0.698h7.062c0.386,0,0.697,0.313,0.697,0.698V73.51z"/>
<path fill="#6C7988" d="M204.218,73.51c0,0.385-0.313,0.698-0.696,0.698h-7.063c-0.385,0-0.697-0.313-0.697-0.698v-3.217
	c0-0.385,0.313-0.698,0.697-0.698h7.063c0.387,0,0.696,0.313,0.696,0.698V73.51z"/>
<path opacity="0.2" fill="#6C7988" enable-background="new    " d="M219.594,191.066H38.922c-5.938,0-10.764-4.824-10.764-10.765
	V63.211c-1.691,0.662-3.734,1.688-3.734,5.704l-0.109,114.078c0,7.813,7.302,12.688,13.471,12.688h174.121
	c4.604,0,8.411-0.307,9.103-4.719C220.545,191.023,220.074,191.066,219.594,191.066z"/>
<polygon opacity="0.6" fill="#6C7988" enable-background="new    " points="9.451,8.09 250.348,8.09 226.256,49.606 32.772,49.606 
	"/>
<g opacity="0.1">
	<path d="M93.056,147.991c-0.498-0.277-1.925-0.107-3.64,0.426c-3.001,2.051-5.533,5.072-5.71,9.924
		c-0.032,0.117-0.328-0.014-0.386-0.049c-0.811-1.555-1.131-3.191-0.455-5.551c0.125-0.211-0.287-0.469-0.361-0.395
		c-0.149,0.146-0.769,0.807-1.18,1.521c-2.037,3.535-0.704,8.066,2.861,10.049c3.567,1.986,8.067,0.705,10.053-2.865
		C96.535,156.943,94.402,148.744,93.056,147.991z"/>
	<g>
		<path d="M105.82,149.966c-4.23,0-7.297,3.145-7.297,7.473c0,4.367,3.062,7.416,7.444,7.416c2.214,0,3.967-0.693,5.359-2.117
			c0.417-0.451,0.462-0.885,0.462-1.049c0-0.707-0.525-1.221-1.248-1.221c-0.365,0-0.67,0.139-1.021,0.461
			c-0.789,0.734-1.827,1.488-3.553,1.488c-2.399,0-4.35-1.803-4.473-4.113h9.548c1.039,0,1.541-0.488,1.541-1.484
			c0-0.295,0-0.506-0.057-0.926C112.008,152.185,109.503,149.966,105.82,149.966L105.82,149.966z M105.82,152.282
			c2.29,0,3.762,1.465,3.853,3.822h-8.177C101.71,153.921,103.556,152.282,105.82,152.282z M121.699,149.966
			c-1.92,0-3.819,1.105-4.563,2.639v-0.949c0-1.465-1.138-1.543-1.366-1.543c-0.674,0-1.395,0.408-1.395,1.543v11.447
			c0,1.525,1.212,1.605,1.453,1.605c0.242,0,1.455-0.078,1.455-1.605v-6.137c0-2.67,1.513-4.533,3.68-4.533
			c2.097,0,3.117,1.373,3.117,4.207v6.463c0,1.525,1.211,1.605,1.453,1.605c0.245,0,1.457-0.078,1.457-1.605v-7.373
			C126.99,152.941,125.601,149.966,121.699,149.966L121.699,149.966z M140.149,150.113c-0.674,0-1.158,0.393-1.451,1.164
			l-3.979,10.006l-3.951-10.006c-0.304-0.783-0.791-1.164-1.476-1.164c-0.804,0-1.453,0.629-1.453,1.393
			c0,0.195,0.021,0.439,0.181,0.828l4.569,10.795c0.549,1.303,1.443,1.576,2.101,1.576c0.658,0,1.556-0.273,2.099-1.576
			l4.601-10.855c0.16-0.381,0.185-0.66,0.185-0.793C141.574,150.702,140.962,150.113,140.149,150.113z M148.608,149.966
			c-1.863,0-3.594,0.52-4.881,1.459c-0.434,0.299-0.646,0.678-0.646,1.148c0,0.65,0.495,1.158,1.129,1.158
			c0.277,0,0.58-0.109,0.863-0.307c1.104-0.736,2.143-1.08,3.27-1.08c2.148,0,3.384,1.092,3.384,3v0.316
			c-4.827,0.006-9.74,0.586-9.74,4.785c0,3.025,2.586,4.379,5.147,4.379c2.037,0,3.666-0.807,4.71-2.336v0.732
			c0,1.098,0.735,1.486,1.366,1.486c0.133,0,1.305-0.043,1.305-1.486v-7.701C154.518,152.044,152.308,149.966,148.608,149.966z
			 M151.114,157.804h0.612v0.67c0,2.449-1.563,4.035-3.976,4.035c-0.657,0-2.795-0.156-2.795-2.121
			C144.956,158.07,148.471,157.804,151.114,157.804L151.114,157.804z M162.09,152.755c1.273,0,1.335-0.99,1.335-1.188
			c0-0.59-0.35-1.217-1.335-1.217h-2.617v-2.65c0-1.182-0.767-1.6-1.425-1.6c-0.244,0-1.453,0.076-1.453,1.6v12.57
			c0,2.9,1.43,4.434,4.135,4.434c0.7,0,1.385-0.121,1.832-0.332c0.512-0.256,0.805-0.674,0.805-1.152
			c0-0.672-0.488-1.158-1.159-1.158c-0.13,0-0.313,0.031-0.519,0.09c-0.251,0.064-0.416,0.088-0.602,0.088
			c-1.103,0-1.614-0.723-1.614-2.264v-7.221H162.09L162.09,152.755z M171.708,149.966c-4.401,0-7.592,3.121-7.592,7.414
			c0,2.092,0.772,4,2.179,5.367c1.393,1.359,3.313,2.104,5.41,2.104c4.343,0,7.621-3.211,7.621-7.471
			C179.326,153.085,176.123,149.966,171.708,149.966L171.708,149.966z M171.708,162.388c-3.017,0-4.593-2.521-4.593-5.008
			c0-3.42,2.38-4.977,4.593-4.977s4.596,1.557,4.596,4.977C176.302,160.823,173.921,162.388,171.708,162.388z"/>
	</g>
</g>
</svg>
