<?xml version="1.0" encoding="utf-8"?>
<!-- Generator: Adobe Illustrator 15.0.0, SVG Export Plug-In . SVG Version: 6.00 Build 0)  -->
<!DOCTYPE svg PUBLIC "-//W3C//DTD SVG 1.1//EN" "http://www.w3.org/Graphics/SVG/1.1/DTD/svg11.dtd">
<svg version="1.1" id="cup" xmlns="http://www.w3.org/2000/svg" xmlns:xlink="http://www.w3.org/1999/xlink" x="0px" y="0px"
	 width="88.917px" height="86.834px" viewBox="0 0 88.917 86.834" enable-background="new 0 0 88.917 86.834" xml:space="preserve">
<g>
	<path fill="#6C7988" d="M78.089,83.483H15.604c-5.566,0-10.093-4.525-10.093-10.092V10.904c0-5.565,4.527-10.094,10.093-10.094
		h62.485c5.564,0,10.095,4.528,10.095,10.094v62.488C88.184,78.958,83.656,83.483,78.089,83.483z M15.604,2.261
		c-4.766,0-8.643,3.877-8.643,8.643v62.488c0,4.768,3.877,8.646,8.643,8.646h62.485c4.769,0,8.646-3.878,8.646-8.646V10.904
		c0-4.766-3.877-8.643-8.646-8.643H15.604z"/>
</g>
<path fill="#6C7988" d="M46.807,10.796c-7.092,0-13.643,2.36-18.91,6.337L17.361,6.598c-0.876-0.876-2.028-1.359-3.242-1.359
	c-1.183,0-2.299,0.464-3.141,1.307L10.883,6.64c-1.774,1.774-1.774,4.662,0,6.436L21.46,23.654
	c-3.833,5.211-6.101,11.641-6.101,18.593c0,17.34,14.107,31.447,31.448,31.447c17.342,0,31.448-14.107,31.448-31.447
	C78.255,24.904,64.149,10.796,46.807,10.796z M11.909,12.049c-1.208-1.21-1.208-3.177-0.001-4.385l0.095-0.094
	c0.568-0.568,1.32-0.881,2.116-0.881c0.827,0,1.614,0.332,2.217,0.935L26.753,18.04c-1.609,1.335-3.082,2.829-4.398,4.455
	L11.909,12.049z M46.807,72.243c-16.541,0-29.998-13.455-29.998-29.996c0-16.542,13.457-30,29.998-30s29.997,13.457,29.997,30
	C76.804,58.788,63.348,72.243,46.807,72.243z"/>
<path fill="#6C7988" d="M46.775,15.728c-14.627,0-26.486,11.858-26.486,26.486c0,14.629,11.858,26.486,26.486,26.486
	c14.629,0,26.486-11.857,26.486-26.486C73.263,27.585,61.404,15.728,46.775,15.728z M24.609,37.649
	c-0.435,0-0.788-0.353-0.788-0.788s0.353-0.787,0.788-0.787s0.787,0.353,0.787,0.787C25.397,37.296,25.045,37.649,24.609,37.649z
	 M26.631,34.805c-0.55,0-0.997-0.446-0.997-0.997c0-0.551,0.446-0.997,0.997-0.997c0.551,0,0.998,0.446,0.998,0.997
	C27.629,34.358,27.183,34.805,26.631,34.805z M45.85,19.395c0.551,0,0.998,0.446,0.998,0.997c0,0.551-0.445,0.997-0.998,0.997
	c-0.55,0-0.996-0.446-0.996-0.997C44.854,19.84,45.298,19.395,45.85,19.395z M41.272,20.12c0.926,0,1.677,0.751,1.677,1.678
	c0,0.926-0.75,1.678-1.677,1.678c-0.927,0-1.677-0.752-1.677-1.678C39.595,20.871,40.346,20.12,41.272,20.12z M35.697,22.385
	c1.652,0,2.992,1.339,2.992,2.991s-1.34,2.992-2.992,2.992c-1.652,0-2.991-1.34-2.991-2.992S34.045,22.385,35.697,22.385z
	 M30.394,27.101c0.625,0,1.133,0.507,1.133,1.132c0,0.626-0.507,1.133-1.133,1.133s-1.133-0.507-1.133-1.133
	S29.768,27.101,30.394,27.101z M29.261,32.628c0-0.901,0.73-1.631,1.632-1.631c0.901,0,1.631,0.729,1.631,1.631
	c0,0.902-0.73,1.632-1.631,1.632C29.991,34.26,29.261,33.531,29.261,32.628z M57.244,60.628c-9.287,5.342-20.669,2.695-25.445-5.607
	c-4.774-8.304-0.768-20.829,8.521-26.167c9.29-5.34,22.418-2.502,27.193,5.802C72.287,42.958,66.533,55.29,57.244,60.628z"/>
<path opacity="0.2" fill="#6C7988" enable-background="new    " d="M46.807,73.694c-17.34,0-31.448-14.107-31.448-31.447
	c0-4.958,1.155-9.65,3.207-13.826C15.158,34,13.545,38.963,13.545,46.44c-0.001,16.563,15.042,28.813,29.339,28.813
	c8,0,13.198-1.561,19.103-5.472C57.483,72.274,52.309,73.694,46.807,73.694z"/>
<path opacity="0.2" fill="#6C7988" enable-background="new    " d="M78.089,83.483H15.604c-5.566,0-10.093-4.525-10.093-10.092
	V10.904c0-2.493,0.911-4.776,2.414-6.54c-3.361,1.638-4.678,5.088-4.678,9.078v62.489c0,7.553,5.637,10.903,11.211,10.903h60.375
	c3.086,0,5.84-2.194,7.688-4.375C81.184,83.114,79.679,83.483,78.089,83.483z"/>
<path opacity="0.6" fill="#6C7988" enable-background="new    " d="M29.532,54.112c0,0-4.169-10.604,1.723-17.766
	c5.892-7.162,12.418-16.759,31.366-7.926c1.541,0.764,14.303,10.698,4.434,24.812C63.345,57.739,44.761,77.503,29.532,54.112z"/>
<g opacity="0.1">
	<path d="M24.041,37.505c-0.309-0.171-1.194-0.066-2.257,0.264c-1.86,1.271-3.43,3.145-3.54,6.152
		c-0.02,0.073-0.203-0.009-0.239-0.03c-0.502-0.964-0.701-1.979-0.282-3.441c0.078-0.13-0.178-0.291-0.224-0.244
		c-0.092,0.091-0.477,0.5-0.731,0.943c-1.263,2.192-0.436,5,1.774,6.23c2.211,1.231,5,0.437,6.232-1.776
		C26.197,43.055,24.875,37.973,24.041,37.505z"/>
	<g>
		<path d="M31.953,38.73c-2.623,0-4.524,1.949-4.524,4.632c0,2.707,1.898,4.598,4.615,4.598c1.373,0,2.459-0.43,3.322-1.313
			c0.258-0.279,0.287-0.549,0.287-0.65c0-0.438-0.326-0.757-0.774-0.757c-0.227,0-0.416,0.086-0.633,0.286
			c-0.489,0.455-1.132,0.922-2.202,0.922c-1.488,0-2.697-1.117-2.773-2.549h5.919c0.645,0,0.956-0.303,0.956-0.92
			c0-0.183,0-0.313-0.035-0.574C35.789,40.105,34.236,38.73,31.953,38.73L31.953,38.73z M31.953,40.166
			c1.419,0,2.332,0.908,2.388,2.369h-5.069C29.405,41.182,30.549,40.166,31.953,40.166z M41.797,38.73
			c-1.19,0-2.368,0.685-2.829,1.636v-0.589c0-0.908-0.706-0.956-0.847-0.956c-0.417,0-0.864,0.252-0.864,0.956v7.097
			c0,0.945,0.751,0.995,0.901,0.995s0.902-0.049,0.902-0.995v-3.805c0-1.655,0.938-2.811,2.281-2.811c1.3,0,1.933,0.852,1.933,2.608
			v4.007c0,0.945,0.75,0.995,0.9,0.995c0.152,0,0.903-0.049,0.903-0.995v-4.571C45.077,40.574,44.215,38.73,41.797,38.73
			L41.797,38.73z M53.234,38.821c-0.417,0-0.717,0.243-0.898,0.721l-2.467,6.203l-2.449-6.203c-0.188-0.485-0.49-0.721-0.915-0.721
			c-0.499,0-0.901,0.39-0.901,0.863c0,0.12,0.014,0.272,0.112,0.513l2.833,6.692c0.34,0.808,0.895,0.977,1.302,0.977
			c0.408,0,0.965-0.169,1.302-0.977l2.852-6.73c0.1-0.236,0.114-0.409,0.114-0.492C54.118,39.186,53.738,38.821,53.234,38.821z
			 M58.478,38.73c-1.154,0-2.228,0.322-3.025,0.904c-0.269,0.185-0.4,0.419-0.4,0.712c0,0.402,0.307,0.718,0.699,0.718
			c0.172,0,0.359-0.067,0.535-0.19c0.686-0.457,1.328-0.67,2.027-0.67c1.332,0,2.098,0.677,2.098,1.86v0.196
			c-2.992,0.004-6.039,0.363-6.039,2.967c0,1.875,1.604,2.714,3.191,2.714c1.264,0,2.273-0.5,2.92-1.448v0.454
			c0,0.681,0.456,0.922,0.848,0.922c0.082,0,0.809-0.026,0.809-0.922v-4.773C62.142,40.018,60.771,38.73,58.478,38.73z
			 M60.032,43.589h0.38v0.415c0,1.519-0.969,2.502-2.465,2.502c-0.407,0-1.732-0.097-1.732-1.315
			C56.214,43.753,58.393,43.589,60.032,43.589L60.032,43.589z M66.835,40.458c0.79,0,0.828-0.614,0.828-0.736
			c0-0.365-0.217-0.754-0.828-0.754h-1.622v-1.643c0-0.733-0.476-0.992-0.884-0.992c-0.15,0-0.9,0.048-0.9,0.992v7.792
			c0,1.798,0.887,2.748,2.563,2.748c0.434,0,0.858-0.075,1.136-0.205c0.317-0.159,0.499-0.418,0.499-0.715
			c0-0.416-0.303-0.718-0.719-0.718c-0.081,0-0.194,0.019-0.321,0.056c-0.156,0.04-0.259,0.055-0.373,0.055
			c-0.684,0-1.001-0.448-1.001-1.404v-4.476H66.835L66.835,40.458z M72.798,38.73c-2.729,0-4.706,1.935-4.706,4.596
			c0,1.297,0.479,2.479,1.351,3.327c0.863,0.843,2.054,1.304,3.354,1.304c2.692,0,4.725-1.99,4.725-4.631
			C77.521,40.663,75.536,38.73,72.798,38.73L72.798,38.73z M72.798,46.431c-1.87,0-2.847-1.563-2.847-3.104
			c0-2.12,1.475-3.085,2.847-3.085s2.849,0.965,2.849,3.085C75.646,45.461,74.17,46.431,72.798,46.431z"/>
	</g>
</g>
</svg>
